<svg width="1200" height="630" viewBox="0 0 1200 630" fill="none" xmlns="http://www.w3.org/2000/svg">
  <rect width="1200" height="630" fill="#050907"/>
  <rect x="30" y="30" width="1140" height="570" rx="28" fill="url(#surface)" stroke="rgba(255,255,255,0.14)"/>
  <g opacity=".7">
    <path d="M0 162H1200" stroke="rgba(255,255,255,0.06)"/>
    <path d="M0 356H1200" stroke="rgba(255,255,255,0.06)"/>
    <path d="M176 0V630" stroke="rgba(255,255,255,0.05)"/>
    <path d="M762 0V630" stroke="rgba(255,255,255,0.05)"/>
  </g>
  <ellipse cx="868" cy="198" rx="232" ry="180" fill="url(#glow)"/>
  <path d="M120 143H244" stroke="#8DC8A6" stroke-width="2"/>
  <text x="120" y="122" fill="#8DC8A6" font-family="'Aptos', 'Avenir Next', 'Segoe UI', sans-serif" font-size="18" letter-spacing="4">OFFICIAL STUDIO WEBSITE</text>
  <text x="120" y="284" fill="#F1EBE0" font-family="'Iowan Old Style', 'Palatino Linotype', Georgia, serif" font-size="88">First Stand</text>
  <text x="120" y="366" fill="#F1EBE0" font-family="'Iowan Old Style', 'Palatino Linotype', Georgia, serif" font-size="88">Studio</text>
  <text x="120" y="430" fill="#BFC4BC" font-family="'Aptos', 'Avenir Next', 'Segoe UI', sans-serif" font-size="28">Original projects. Clear identity. Enduring work.</text>
  <rect x="840" y="146" width="222" height="298" rx="28" fill="rgba(5,9,7,0.44)" stroke="rgba(255,255,255,0.12)"/>
  <path d="M910 230H997V250H934V272H982V292H934V360H910V230Z" fill="url(#emerald)"/>
  <path d="M1040 230V252H1001V360H977V230H1040Z" fill="#E6E0D5"/>
  <text x="840" y="518" fill="#D6DBD3" font-family="'Aptos', 'Avenir Next', 'Segoe UI', sans-serif" font-size="18" letter-spacing="4">YAHIA SAAD  ·  FES, MOROCCO</text>
  <defs>
    <linearGradient id="surface" x1="86" y1="60" x2="1116" y2="570" gradientUnits="userSpaceOnUse">
      <stop stop-color="#101A16"/>
      <stop offset=".4" stop-color="#0B120F"/>
      <stop offset="1" stop-color="#07100D"/>
    </linearGradient>
    <radialGradient id="glow" cx="0" cy="0" r="1" gradientUnits="userSpaceOnUse" gradientTransform="translate(868 198) rotate(90) scale(180 232)">
      <stop stop-color="#4E7F61" stop-opacity=".55"/>
      <stop offset="1" stop-color="#4E7F61" stop-opacity="0"/>
    </radialGradient>
    <linearGradient id="emerald" x1="910" y1="230" x2="997" y2="360" gradientUnits="userSpaceOnUse">
      <stop stop-color="#95D4B0"/>
      <stop offset="1" stop-color="#4E7F61"/>
    </linearGradient>
  </defs>
</svg>
